<?xml version="1.0" encoding="iso-8859-1"?>
<!-- Generator: Adobe Illustrator 23.0.1, SVG Export Plug-In . SVG Version: 6.00 Build 0)  -->
<svg version="1.1" id="Layer_1" xmlns="http://www.w3.org/2000/svg" xmlns:xlink="http://www.w3.org/1999/xlink" x="0px" y="0px"
	 viewBox="0 0 512 512" style="enable-background:new 0 0 512 512;" xml:space="preserve">
<g>
	<g>
		<path style="fill:#EE2724;" d="M261.369,139.986l-65.204,191.345c-7.393,21.485-32.132,40.683-53.609,40.683h-12.561l5.67-21.075
			c9.207,0,18.997-7.475,21.85-16.672l60.227-194.281H261.369L261.369,139.986z"/>
		<polygon style="fill:#EE2724;" points="355.496,139.986 397.173,139.986 407.456,188.681 435.404,139.986 481,139.986 
			418.248,235.754 440.308,324.905 399.616,324.905 389.324,275.945 361.385,324.905 315.306,324.905 377.556,227.906 
			355.496,139.986 		"/>
		<path style="fill-rule:evenodd;clip-rule:evenodd;fill:#EE2724;" d="M241.679,324.905c0,0,18.249-25.433,50.108-32.798
			l-3.929,32.798h38.24l21.568-184.919h-52.943l-95.577,184.919H241.679L241.679,324.905z M296.683,252.418
			c0,0-9.808,2.443-24.019,9.79l31.859-67.638L296.683,252.418L296.683,252.418z"/>
		<path style="fill-rule:evenodd;clip-rule:evenodd;fill:#EE2724;" d="M73.533,324.905c0,0,18.249-25.433,50.118-32.798
			l-3.92,32.798h38.231l21.568-184.919h-52.934L31,324.905H73.533L73.533,324.905z M128.555,252.418c0,0-9.808,2.443-24.029,9.79
			l31.868-67.638L128.555,252.418L128.555,252.418z"/>
	</g>
</g>
</svg>
